<svg xmlns="http://www.w3.org/2000/svg" width="512" height="512" viewBox="0 0 512 512" preserveAspectRatio="xMidYMid meet"><path fill="#c4e5b2" d="M256 40L256 148L202 148ZM364 148L256 148L256 94ZM256 472L256 364L310 364ZM148 364L256 364L256 418ZM148 148L148 256L94 256ZM472 256L364 256L364 202ZM364 364L364 256L418 256ZM40 256L148 256L148 310Z"/><path fill="#579932" d="M148 40L148 148L40 148ZM472 148L364 148L364 40ZM364 472L364 364L472 364ZM40 364L148 364L148 472Z"/><path fill="#8acc66" d="M256 148L256 234L202 148ZM364 256L278 256L364 202ZM256 364L256 278L310 364ZM148 256L234 256L148 310Z"/></svg>