<svg xmlns="http://www.w3.org/2000/svg" width="512" height="512" viewBox="0 0 512 512" preserveAspectRatio="xMidYMid meet"><path fill="#4c4c4c" d="M256 148L148 148L148 94ZM256 148L256 40L310 40ZM256 364L364 364L364 418ZM256 364L256 472L202 472ZM148 256L40 256L40 202ZM364 256L364 148L418 148ZM364 256L472 256L472 310ZM148 256L148 364L94 364Z"/><path fill="#c2cc66" d="M40 148L40 40L148 40ZM364 40L472 40L472 148ZM472 364L472 472L364 472ZM148 472L40 472L40 364ZM256 148L256 234L202 148ZM364 256L278 256L364 202ZM256 364L256 278L310 364ZM148 256L234 256L148 310Z"/></svg>