<svg xmlns="http://www.w3.org/2000/svg" width="512" height="512" viewBox="0 0 512 512" preserveAspectRatio="xMidYMid meet"><path fill="#dbbae8" d="M148 40L256 40L256 94ZM364 40L364 148L310 148ZM364 472L256 472L256 418ZM148 472L148 364L202 364ZM40 148L148 148L148 202ZM472 148L472 256L418 256ZM472 364L364 364L364 310ZM40 364L40 256L94 256Z"/><path fill="#b875d1" d="M94 148L40 94L94 40L148 94ZM364 94L418 40L472 94L418 148ZM418 364L472 418L418 472L364 418ZM148 418L94 472L40 418L94 364ZM148 148L256 148L256 165.28L210.64 256L148 256ZM364 148L364 256L346.72 256L256 210.64L256 148ZM364 364L256 364L256 346.72L301.36 256L364 256ZM148 364L148 256L165.28 256L256 301.36L256 364Z"/></svg>