<svg xmlns="http://www.w3.org/2000/svg" width="512" height="512" viewBox="0 0 512 512" preserveAspectRatio="xMidYMid meet"><path fill="#4c4c4c" d="M166 94a36,36 0 1,1 72,0a36,36 0 1,1 -72,0M274 94a36,36 0 1,1 72,0a36,36 0 1,1 -72,0M274 418a36,36 0 1,1 72,0a36,36 0 1,1 -72,0M166 418a36,36 0 1,1 72,0a36,36 0 1,1 -72,0M58 202a36,36 0 1,1 72,0a36,36 0 1,1 -72,0M382 202a36,36 0 1,1 72,0a36,36 0 1,1 -72,0M382 310a36,36 0 1,1 72,0a36,36 0 1,1 -72,0M58 310a36,36 0 1,1 72,0a36,36 0 1,1 -72,0"/><path fill="#e5e5e5" d="M40 94L94 40L148 94L94 148ZM418 40L472 94L418 148L364 94ZM472 418L418 472L364 418L418 364ZM94 472L40 418L94 364L148 418Z"/><path fill="#d175b5" d="M186 213a27,27 0 1,1 54,0a27,27 0 1,1 -54,0M272 213a27,27 0 1,1 54,0a27,27 0 1,1 -54,0M272 299a27,27 0 1,1 54,0a27,27 0 1,1 -54,0M186 299a27,27 0 1,1 54,0a27,27 0 1,1 -54,0"/></svg>